ISO-10303-21;
HEADER;
FILE_DESCRIPTION(('Open CASCADE Model'),'2;1');
FILE_NAME('BLANK_ERSB06-07G_PAN_EXTRUDED','2026-09-29T12:34:42',(
    'Author'),('Open CASCADE'),'Open CASCADE STEP processor 8.0',
  'build123d','Unknown');
FILE_SCHEMA(('AUTOMOTIVE_DESIGN { 1 0 10303 214 1 1 1 1 }'));
ENDSEC;
DATA;
#1 = APPLICATION_PROTOCOL_DEFINITION('international standard',
  'automotive_design',2000,#2);
#2 = APPLICATION_CONTEXT(
  'core data for automotive mechanical design processes');
#3 = SHAPE_DEFINITION_REPRESENTATION(#4,#10);
#4 = PRODUCT_DEFINITION_SHAPE('','',#5);
#5 = PRODUCT_DEFINITION('design','',#6,#9);
#6 = PRODUCT_DEFINITION_FORMATION('','',#7);
#7 = PRODUCT('BLANK_ERSB06-07G_PAN_EXTRUDED',
  'BLANK_ERSB06-07G_PAN_EXTRUDED','',(#8));
#8 = PRODUCT_CONTEXT('',#2,'mechanical');
#9 = PRODUCT_DEFINITION_CONTEXT('part definition',#2,'design');
#10 = ADVANCED_BREP_SHAPE_REPRESENTATION('',(#11,#15),#590);
#11 = AXIS2_PLACEMENT_3D('',#12,#13,#14);
#12 = CARTESIAN_POINT('',(0.,0.,0.));
#13 = DIRECTION('',(0.,0.,1.));
#14 = DIRECTION('',(1.,0.,-0.));
#15 = MANIFOLD_SOLID_BREP('',#16);
#16 = CLOSED_SHELL('',(#17,#142,#220,#275,#310,#366,#421,#476,#531,#586)
  );
#17 = ADVANCED_FACE('',(#18),#33,.T.);
#18 = FACE_BOUND('',#19,.T.);
#19 = EDGE_LOOP('',(#20,#51,#52));
#20 = ORIENTED_EDGE('',*,*,#21,.F.);
#21 = EDGE_CURVE('',#22,#24,#26,.T.);
#22 = VERTEX_POINT('',#23);
#23 = CARTESIAN_POINT('',(0.,0.,-3.7));
#24 = VERTEX_POINT('',#25);
#25 = CARTESIAN_POINT('',(4.578947368421,0.,-2.259972636927));
#26 = SEAM_CURVE('',#27,(#32,#44),.PCURVE_S1.);
#27 = CIRCLE('',#28,8.);
#28 = AXIS2_PLACEMENT_3D('',#29,#30,#31);
#29 = CARTESIAN_POINT('',(-6.550315845288E-15,0.,4.3));
#30 = DIRECTION('',(0.,-1.,0.));
#31 = DIRECTION('',(8.187894806611E-16,0.,-1.));
#32 = PCURVE('',#33,#38);
#33 = SPHERICAL_SURFACE('',#34,8.);
#34 = AXIS2_PLACEMENT_3D('',#35,#36,#37);
#35 = CARTESIAN_POINT('',(-6.550315845288E-15,0.,4.3));
#36 = DIRECTION('',(0.,0.,1.));
#37 = DIRECTION('',(1.,0.,-0.));
#38 = DEFINITIONAL_REPRESENTATION('',(#39),#43);
#39 = LINE('',#40,#41);
#40 = CARTESIAN_POINT('',(0.,-1.570796326795));
#41 = VECTOR('',#42,1.);
#42 = DIRECTION('',(0.,1.));
#43 = ( GEOMETRIC_REPRESENTATION_CONTEXT(2) 
PARAMETRIC_REPRESENTATION_CONTEXT() REPRESENTATION_CONTEXT('2D SPACE',''
  ) );
#44 = PCURVE('',#33,#45);
#45 = DEFINITIONAL_REPRESENTATION('',(#46),#50);
#46 = LINE('',#47,#48);
#47 = CARTESIAN_POINT('',(6.28318530718,-1.570796326795));
#48 = VECTOR('',#49,1.);
#49 = DIRECTION('',(0.,1.));
#50 = ( GEOMETRIC_REPRESENTATION_CONTEXT(2) 
PARAMETRIC_REPRESENTATION_CONTEXT() REPRESENTATION_CONTEXT('2D SPACE',''
  ) );
#51 = ORIENTED_EDGE('',*,*,#21,.T.);
#52 = ORIENTED_EDGE('',*,*,#53,.F.);
#53 = EDGE_CURVE('',#24,#24,#54,.T.);
#54 = SURFACE_CURVE('',#55,(#70,#92),.PCURVE_S1.);
#55 = ( BOUNDED_CURVE() B_SPLINE_CURVE(13,(#56,#57,#58,#59,#60,#61,#62,
    #63,#64,#65,#66,#67,#68,#69),.UNSPECIFIED.,.T.,.F.) 
B_SPLINE_CURVE_WITH_KNOTS((14,14),(5.902455466954E-16,29.845130209103),
.PIECEWISE_BEZIER_KNOTS.) CURVE() GEOMETRIC_REPRESENTATION_ITEM() 
RATIONAL_B_SPLINE_CURVE((1.,1.,1.000000000001,0.999999999997,
    1.000000000005,0.999999999991,1.000000000011,0.999999999989,
    1.000000000008,0.999999999995,1.000000000003,0.999999999999,1.,1.)) 
REPRESENTATION_ITEM('') );
#56 = CARTESIAN_POINT('',(4.578947368421,0.,-2.259972636927));
#57 = CARTESIAN_POINT('',(4.578947368423,2.181091624179,-2.259972636927)
  );
#58 = CARTESIAN_POINT('',(3.451687255367,4.412480864853,-2.259972636927)
  );
#59 = CARTESIAN_POINT('',(1.131943786661,6.008019114049,-2.259972636927)
  );
#60 = CARTESIAN_POINT('',(-2.060317672201,6.25306338175,-2.259972636925)
  );
#61 = CARTESIAN_POINT('',(-4.818051610234,4.5524721714,-2.259972636931)
  );
#62 = CARTESIAN_POINT('',(-6.840559767392,2.069988931577,-2.259972636921
    ));
#63 = CARTESIAN_POINT('',(-6.840559767452,-2.069988931622,
    -2.259972636933));
#64 = CARTESIAN_POINT('',(-4.818051610218,-4.552472171321,
    -2.259972636922));
#65 = CARTESIAN_POINT('',(-2.060317672183,-6.253063381818,
    -2.259972636929));
#66 = CARTESIAN_POINT('',(1.131943786637,-6.008019114016,-2.259972636926
    ));
#67 = CARTESIAN_POINT('',(3.45168725538,-4.412480864862,-2.259972636927)
  );
#68 = CARTESIAN_POINT('',(4.578947368419,-2.181091624179,-2.259972636927
    ));
#69 = CARTESIAN_POINT('',(4.578947368421,-1.12151864764E-15,
    -2.259972636927));
#70 = PCURVE('',#33,#71);
#71 = DEFINITIONAL_REPRESENTATION('',(#72),#91);
#72 = B_SPLINE_CURVE_WITH_KNOTS('',9,(#73,#74,#75,#76,#77,#78,#79,#80,
    #81,#82,#83,#84,#85,#86,#87,#88,#89,#90),.UNSPECIFIED.,.F.,.F.,(10,8
    ,10),(5.902455466954E-16,14.922565104552,29.845130209103),
  .UNSPECIFIED.);
#73 = CARTESIAN_POINT('',(8.881784197001E-16,-0.961405042895));
#74 = CARTESIAN_POINT('',(0.344016367287,-0.961405042895));
#75 = CARTESIAN_POINT('',(0.693951626852,-0.961405042895));
#76 = CARTESIAN_POINT('',(1.045310680394,-0.961405042894));
#77 = CARTESIAN_POINT('',(1.396480962002,-0.961405042896));
#78 = CARTESIAN_POINT('',(1.74485073445,-0.961405042894));
#79 = CARTESIAN_POINT('',(2.094637362127,-0.961405042895));
#80 = CARTESIAN_POINT('',(2.443412978475,-0.961405042895));
#81 = CARTESIAN_POINT('',(2.792527182977,-0.961405042895));
#82 = CARTESIAN_POINT('',(3.490658124203,-0.961405042895));
#83 = CARTESIAN_POINT('',(3.839772328702,-0.961405042895));
#84 = CARTESIAN_POINT('',(4.188547945063,-0.961405042895));
#85 = CARTESIAN_POINT('',(4.538334572707,-0.961405042895));
#86 = CARTESIAN_POINT('',(4.886704345207,-0.961405042895));
#87 = CARTESIAN_POINT('',(5.237874626763,-0.961405042895));
#88 = CARTESIAN_POINT('',(5.589233680337,-0.961405042895));
#89 = CARTESIAN_POINT('',(5.939168939892,-0.961405042895));
#90 = CARTESIAN_POINT('',(6.28318530718,-0.961405042895));
#91 = ( GEOMETRIC_REPRESENTATION_CONTEXT(2) 
PARAMETRIC_REPRESENTATION_CONTEXT() REPRESENTATION_CONTEXT('2D SPACE',''
  ) );
#92 = PCURVE('',#93,#136);
#93 = ( BOUNDED_SURFACE() B_SPLINE_SURFACE(2,13,(
    (#94,#95,#96,#97,#98,#99,#100,#101,#102,#103,#104,#105,#106,#107)
    ,(#108,#109,#110,#111,#112,#113,#114,#115,#116,#117,#118,#119,#120
      ,#121)
    ,(#122,#123,#124,#125,#126,#127,#128,#129,#130,#131,#132,#133,#134
,#135
    )),.UNSPECIFIED.,.F.,.T.,.F.) B_SPLINE_SURFACE_WITH_KNOTS((3,3),(14,
    14),(0.,29.845130209103),(5.902455466954E-16,29.845130209103),
.PIECEWISE_BEZIER_KNOTS.) GEOMETRIC_REPRESENTATION_ITEM() 
RATIONAL_B_SPLINE_SURFACE((
    (1.,1.,1.000000000001,0.999999999997,1.000000000005,0.999999999991
      ,1.000000000011,0.999999999989,1.000000000008,0.999999999995
      ,1.000000000003,0.999999999999,1.,1.)
    ,(0.886670294149,0.886670294149,0.88667029415,0.886670294146
      ,0.886670294154,0.886670294141,0.886670294159,0.886670294139
      ,0.886670294157,0.886670294144,0.886670294151,0.886670294148
      ,0.886670294149,0.886670294149)
    ,(1.,1.,1.000000000001,0.999999999997,1.000000000005,0.999999999991
      ,1.000000000011,0.999999999989,1.000000000008,0.999999999995
,1.000000000003,0.999999999999,1.,1.
  ))) REPRESENTATION_ITEM('') SURFACE() );
#94 = CARTESIAN_POINT('',(4.578947368421,0.,-2.259972636927));
#95 = CARTESIAN_POINT('',(4.578947368423,2.181091624179,-2.259972636927)
  );
#96 = CARTESIAN_POINT('',(3.451687255367,4.412480864853,-2.259972636927)
  );
#97 = CARTESIAN_POINT('',(1.131943786661,6.008019114049,-2.259972636927)
  );
#98 = CARTESIAN_POINT('',(-2.060317672201,6.25306338175,-2.259972636925)
  );
#99 = CARTESIAN_POINT('',(-4.818051610234,4.5524721714,-2.259972636931)
  );
#100 = CARTESIAN_POINT('',(-6.840559767392,2.069988931577,
    -2.259972636921));
#101 = CARTESIAN_POINT('',(-6.840559767452,-2.069988931622,
    -2.259972636933));
#102 = CARTESIAN_POINT('',(-4.818051610218,-4.552472171321,
    -2.259972636922));
#103 = CARTESIAN_POINT('',(-2.060317672183,-6.253063381818,
    -2.259972636929));
#104 = CARTESIAN_POINT('',(1.131943786637,-6.008019114016,
    -2.259972636926));
#105 = CARTESIAN_POINT('',(3.45168725538,-4.412480864862,-2.259972636927
    ));
#106 = CARTESIAN_POINT('',(4.578947368419,-2.181091624179,
    -2.259972636927));
#107 = CARTESIAN_POINT('',(4.578947368421,-1.12151864764E-15,
    -2.259972636927));
#108 = CARTESIAN_POINT('',(4.75,3.190156472321E-15,-2.140575645418));
#109 = CARTESIAN_POINT('',(4.750000000002,2.262569184853,-2.140575645418
    ));
#110 = CARTESIAN_POINT('',(3.580629595366,4.57731492015,-2.140575645418)
  );
#111 = CARTESIAN_POINT('',(1.174229043059,6.232456609688,-2.140575645418
    ));
#112 = CARTESIAN_POINT('',(-2.137283562251,6.486654829919,
    -2.140575645417));
#113 = CARTESIAN_POINT('',(-4.998036296832,4.722535786996,
    -2.140575645421));
#114 = CARTESIAN_POINT('',(-7.096097919609,2.147316104313,
    -2.140575645414));
#115 = CARTESIAN_POINT('',(-7.096097919698,-2.147316104364,
    -2.140575645422));
#116 = CARTESIAN_POINT('',(-4.998036296798,-4.722535786907,
    -2.140575645415));
#117 = CARTESIAN_POINT('',(-2.137283562241,-6.486654829996,
    -2.140575645419));
#118 = CARTESIAN_POINT('',(1.174229043036,-6.232456609651,
    -2.140575645418));
#119 = CARTESIAN_POINT('',(3.580629595379,-4.57731492016,-2.140575645418
    ));
#120 = CARTESIAN_POINT('',(4.749999999999,-2.262569184852,
    -2.140575645418));
#121 = CARTESIAN_POINT('',(4.75,6.154798892766E-15,-2.140575645418));
#122 = CARTESIAN_POINT('',(4.75,0.,-1.931974005081));
#123 = CARTESIAN_POINT('',(4.750000000002,2.262569184853,-1.931974005081
    ));
#124 = CARTESIAN_POINT('',(3.580629595366,4.57731492015,-1.931974005081)
  );
#125 = CARTESIAN_POINT('',(1.17422904306,6.232456609688,-1.931974005081)
  );
#126 = CARTESIAN_POINT('',(-2.137283562254,6.486654829921,-1.93197400508
    ));
#127 = CARTESIAN_POINT('',(-4.998036296826,4.722535786993,
    -1.931974005083));
#128 = CARTESIAN_POINT('',(-7.096097919617,2.147316104317,
    -1.931974005077));
#129 = CARTESIAN_POINT('',(-7.096097919691,-2.147316104366,
    -1.931974005084));
#130 = CARTESIAN_POINT('',(-4.998036296802,-4.722535786904,
    -1.931974005078));
#131 = CARTESIAN_POINT('',(-2.137283562238,-6.48665483,-1.931974005082)
  );
#132 = CARTESIAN_POINT('',(1.174229043035,-6.232456609648,-1.93197400508
    ));
#133 = CARTESIAN_POINT('',(3.580629595379,-4.577314920161,
    -1.931974005081));
#134 = CARTESIAN_POINT('',(4.749999999998,-2.262569184851,
    -1.931974005081));
#135 = CARTESIAN_POINT('',(4.75,-1.16341445919E-15,-1.931974005081));
#136 = DEFINITIONAL_REPRESENTATION('',(#137),#141);
#137 = LINE('',#138,#139);
#138 = CARTESIAN_POINT('',(0.,0.));
#139 = VECTOR('',#140,1.);
#140 = DIRECTION('',(0.,1.));
#141 = ( GEOMETRIC_REPRESENTATION_CONTEXT(2) 
PARAMETRIC_REPRESENTATION_CONTEXT() REPRESENTATION_CONTEXT('2D SPACE',''
  ) );
#142 = ADVANCED_FACE('',(#143),#93,.F.);
#143 = FACE_BOUND('',#144,.F.);
#144 = EDGE_LOOP('',(#145,#166,#218,#219));
#145 = ORIENTED_EDGE('',*,*,#146,.T.);
#146 = EDGE_CURVE('',#24,#147,#149,.T.);
#147 = VERTEX_POINT('',#148);
#148 = CARTESIAN_POINT('',(4.75,0.,-1.931974005081));
#149 = SEAM_CURVE('',#150,(#154,#160),.PCURVE_S1.);
#150 = ( BOUNDED_CURVE() B_SPLINE_CURVE(2,(#151,#152,#153),
.UNSPECIFIED.,.F.,.F.) B_SPLINE_CURVE_WITH_KNOTS((3,3),(0.,
29.845130209103),.PIECEWISE_BEZIER_KNOTS.) CURVE() 
GEOMETRIC_REPRESENTATION_ITEM() RATIONAL_B_SPLINE_CURVE((1.,
0.886670294149,1.)) REPRESENTATION_ITEM('') );
#151 = CARTESIAN_POINT('',(4.578947368421,0.,-2.259972636927));
#152 = CARTESIAN_POINT('',(4.75,3.190156472321E-15,-2.140575645418));
#153 = CARTESIAN_POINT('',(4.75,0.,-1.931974005081));
#154 = PCURVE('',#93,#155);
#155 = DEFINITIONAL_REPRESENTATION('',(#156),#159);
#156 = B_SPLINE_CURVE_WITH_KNOTS('',1,(#157,#158),.UNSPECIFIED.,.F.,.F.,
  (2,2),(0.,29.845130209103),.PIECEWISE_BEZIER_KNOTS.);
#157 = CARTESIAN_POINT('',(0.,5.902455466954E-16));
#158 = CARTESIAN_POINT('',(29.845130209103,5.902455466954E-16));
#159 = ( GEOMETRIC_REPRESENTATION_CONTEXT(2) 
PARAMETRIC_REPRESENTATION_CONTEXT() REPRESENTATION_CONTEXT('2D SPACE',''
  ) );
#160 = PCURVE('',#93,#161);
#161 = DEFINITIONAL_REPRESENTATION('',(#162),#165);
#162 = B_SPLINE_CURVE_WITH_KNOTS('',1,(#163,#164),.UNSPECIFIED.,.F.,.F.,
  (2,2),(0.,29.845130209103),.PIECEWISE_BEZIER_KNOTS.);
#163 = CARTESIAN_POINT('',(0.,29.845130209103));
#164 = CARTESIAN_POINT('',(29.845130209103,29.845130209103));
#165 = ( GEOMETRIC_REPRESENTATION_CONTEXT(2) 
PARAMETRIC_REPRESENTATION_CONTEXT() REPRESENTATION_CONTEXT('2D SPACE',''
  ) );
#166 = ORIENTED_EDGE('',*,*,#167,.T.);
#167 = EDGE_CURVE('',#147,#147,#168,.T.);
#168 = SURFACE_CURVE('',#169,(#184,#191),.PCURVE_S1.);
#169 = ( BOUNDED_CURVE() B_SPLINE_CURVE(13,(#170,#171,#172,#173,#174,
    #175,#176,#177,#178,#179,#180,#181,#182,#183),.UNSPECIFIED.,.T.,.F.)
 B_SPLINE_CURVE_WITH_KNOTS((14,14),(5.902455466954E-16,29.845130209103),
.PIECEWISE_BEZIER_KNOTS.) CURVE() GEOMETRIC_REPRESENTATION_ITEM() 
RATIONAL_B_SPLINE_CURVE((1.,1.,1.000000000001,0.999999999997,
    1.000000000005,0.999999999991,1.000000000011,0.999999999989,
    1.000000000008,0.999999999995,1.000000000003,0.999999999999,1.,1.)) 
REPRESENTATION_ITEM('') );
#170 = CARTESIAN_POINT('',(4.75,0.,-1.931974005081));
#171 = CARTESIAN_POINT('',(4.750000000002,2.262569184853,-1.931974005081
    ));
#172 = CARTESIAN_POINT('',(3.580629595366,4.57731492015,-1.931974005081)
  );
#173 = CARTESIAN_POINT('',(1.17422904306,6.232456609688,-1.931974005081)
  );
#174 = CARTESIAN_POINT('',(-2.137283562254,6.486654829921,-1.93197400508
    ));
#175 = CARTESIAN_POINT('',(-4.998036296826,4.722535786993,
    -1.931974005083));
#176 = CARTESIAN_POINT('',(-7.096097919617,2.147316104317,
    -1.931974005077));
#177 = CARTESIAN_POINT('',(-7.096097919691,-2.147316104366,
    -1.931974005084));
#178 = CARTESIAN_POINT('',(-4.998036296802,-4.722535786904,
    -1.931974005078));
#179 = CARTESIAN_POINT('',(-2.137283562238,-6.48665483,-1.931974005082)
  );
#180 = CARTESIAN_POINT('',(1.174229043035,-6.232456609648,-1.93197400508
    ));
#181 = CARTESIAN_POINT('',(3.580629595379,-4.577314920161,
    -1.931974005081));
#182 = CARTESIAN_POINT('',(4.749999999998,-2.262569184851,
    -1.931974005081));
#183 = CARTESIAN_POINT('',(4.75,-1.16341445919E-15,-1.931974005081));
#184 = PCURVE('',#93,#185);
#185 = DEFINITIONAL_REPRESENTATION('',(#186),#190);
#186 = LINE('',#187,#188);
#187 = CARTESIAN_POINT('',(29.845130209103,0.));
#188 = VECTOR('',#189,1.);
#189 = DIRECTION('',(0.,1.));
#190 = ( GEOMETRIC_REPRESENTATION_CONTEXT(2) 
PARAMETRIC_REPRESENTATION_CONTEXT() REPRESENTATION_CONTEXT('2D SPACE',''
  ) );
#191 = PCURVE('',#192,#197);
#192 = CYLINDRICAL_SURFACE('',#193,4.75);
#193 = AXIS2_PLACEMENT_3D('',#194,#195,#196);
#194 = CARTESIAN_POINT('',(0.,0.,-2.137196594792));
#195 = DIRECTION('',(0.,0.,1.));
#196 = DIRECTION('',(1.,0.,-0.));
#197 = DEFINITIONAL_REPRESENTATION('',(#198),#217);
#198 = B_SPLINE_CURVE_WITH_KNOTS('',9,(#199,#200,#201,#202,#203,#204,
    #205,#206,#207,#208,#209,#210,#211,#212,#213,#214,#215,#216),
  .UNSPECIFIED.,.F.,.F.,(10,8,10),(5.902455466954E-16,14.922565104552,
    29.845130209103),.UNSPECIFIED.);
#199 = CARTESIAN_POINT('',(-4.440892098501E-16,0.205222589711));
#200 = CARTESIAN_POINT('',(0.344016367287,0.205222589711));
#201 = CARTESIAN_POINT('',(0.693951626852,0.205222589711));
#202 = CARTESIAN_POINT('',(1.045310680395,0.205222589711));
#203 = CARTESIAN_POINT('',(1.396480962002,0.205222589711));
#204 = CARTESIAN_POINT('',(1.74485073445,0.205222589711));
#205 = CARTESIAN_POINT('',(2.094637362127,0.205222589711));
#206 = CARTESIAN_POINT('',(2.443412978475,0.205222589711));
#207 = CARTESIAN_POINT('',(2.792527182977,0.205222589711));
#208 = CARTESIAN_POINT('',(3.490658124203,0.205222589711));
#209 = CARTESIAN_POINT('',(3.839772328706,0.205222589711));
#210 = CARTESIAN_POINT('',(4.188547945047,0.205222589711));
#211 = CARTESIAN_POINT('',(4.538334572741,0.205222589711));
#212 = CARTESIAN_POINT('',(4.886704345163,0.205222589711));
#213 = CARTESIAN_POINT('',(5.237874626797,0.205222589711));
#214 = CARTESIAN_POINT('',(5.589233680322,0.205222589711));
#215 = CARTESIAN_POINT('',(5.939168939892,0.205222589711));
#216 = CARTESIAN_POINT('',(6.28318530718,0.205222589711));
#217 = ( GEOMETRIC_REPRESENTATION_CONTEXT(2) 
PARAMETRIC_REPRESENTATION_CONTEXT() REPRESENTATION_CONTEXT('2D SPACE',''
  ) );
#218 = ORIENTED_EDGE('',*,*,#146,.F.);
#219 = ORIENTED_EDGE('',*,*,#53,.F.);
#220 = ADVANCED_FACE('',(#221),#192,.T.);
#221 = FACE_BOUND('',#222,.T.);
#222 = EDGE_LOOP('',(#223,#246,#247,#248));
#223 = ORIENTED_EDGE('',*,*,#224,.F.);
#224 = EDGE_CURVE('',#147,#225,#227,.T.);
#225 = VERTEX_POINT('',#226);
#226 = CARTESIAN_POINT('',(4.75,0.,0.));
#227 = SEAM_CURVE('',#228,(#232,#239),.PCURVE_S1.);
#228 = LINE('',#229,#230);
#229 = CARTESIAN_POINT('',(4.75,0.,-2.137196594792));
#230 = VECTOR('',#231,1.);
#231 = DIRECTION('',(0.,0.,1.));
#232 = PCURVE('',#192,#233);
#233 = DEFINITIONAL_REPRESENTATION('',(#234),#238);
#234 = LINE('',#235,#236);
#235 = CARTESIAN_POINT('',(0.,0.));
#236 = VECTOR('',#237,1.);
#237 = DIRECTION('',(0.,1.));
#238 = ( GEOMETRIC_REPRESENTATION_CONTEXT(2) 
PARAMETRIC_REPRESENTATION_CONTEXT() REPRESENTATION_CONTEXT('2D SPACE',''
  ) );
#239 = PCURVE('',#192,#240);
#240 = DEFINITIONAL_REPRESENTATION('',(#241),#245);
#241 = LINE('',#242,#243);
#242 = CARTESIAN_POINT('',(6.28318530718,0.));
#243 = VECTOR('',#244,1.);
#244 = DIRECTION('',(0.,1.));
#245 = ( GEOMETRIC_REPRESENTATION_CONTEXT(2) 
PARAMETRIC_REPRESENTATION_CONTEXT() REPRESENTATION_CONTEXT('2D SPACE',''
  ) );
#246 = ORIENTED_EDGE('',*,*,#167,.T.);
#247 = ORIENTED_EDGE('',*,*,#224,.T.);
#248 = ORIENTED_EDGE('',*,*,#249,.F.);
#249 = EDGE_CURVE('',#225,#225,#250,.T.);
#250 = SURFACE_CURVE('',#251,(#256,#263),.PCURVE_S1.);
#251 = CIRCLE('',#252,4.75);
#252 = AXIS2_PLACEMENT_3D('',#253,#254,#255);
#253 = CARTESIAN_POINT('',(0.,0.,0.));
#254 = DIRECTION('',(0.,0.,1.));
#255 = DIRECTION('',(1.,0.,-0.));
#256 = PCURVE('',#192,#257);
#257 = DEFINITIONAL_REPRESENTATION('',(#258),#262);
#258 = LINE('',#259,#260);
#259 = CARTESIAN_POINT('',(0.,2.137196594792));
#260 = VECTOR('',#261,1.);
#261 = DIRECTION('',(1.,0.));
#262 = ( GEOMETRIC_REPRESENTATION_CONTEXT(2) 
PARAMETRIC_REPRESENTATION_CONTEXT() REPRESENTATION_CONTEXT('2D SPACE',''
  ) );
#263 = PCURVE('',#264,#269);
#264 = PLANE('',#265);
#265 = AXIS2_PLACEMENT_3D('',#266,#267,#268);
#266 = CARTESIAN_POINT('',(0.,0.,0.));
#267 = DIRECTION('',(0.,0.,1.));
#268 = DIRECTION('',(1.,0.,-0.));
#269 = DEFINITIONAL_REPRESENTATION('',(#270),#274);
#270 = CIRCLE('',#271,4.75);
#271 = AXIS2_PLACEMENT_2D('',#272,#273);
#272 = CARTESIAN_POINT('',(0.,0.));
#273 = DIRECTION('',(1.,0.));
#274 = ( GEOMETRIC_REPRESENTATION_CONTEXT(2) 
PARAMETRIC_REPRESENTATION_CONTEXT() REPRESENTATION_CONTEXT('2D SPACE',''
  ) );
#275 = ADVANCED_FACE('',(#276,#279),#264,.T.);
#276 = FACE_BOUND('',#277,.T.);
#277 = EDGE_LOOP('',(#278));
#278 = ORIENTED_EDGE('',*,*,#249,.T.);
#279 = FACE_BOUND('',#280,.T.);
#280 = EDGE_LOOP('',(#281));
#281 = ORIENTED_EDGE('',*,*,#282,.F.);
#282 = EDGE_CURVE('',#283,#283,#285,.T.);
#283 = VERTEX_POINT('',#284);
#284 = CARTESIAN_POINT('',(2.75,0.,0.));
#285 = SURFACE_CURVE('',#286,(#291,#298),.PCURVE_S1.);
#286 = CIRCLE('',#287,2.75);
#287 = AXIS2_PLACEMENT_3D('',#288,#289,#290);
#288 = CARTESIAN_POINT('',(0.,0.,0.));
#289 = DIRECTION('',(0.,0.,1.));
#290 = DIRECTION('',(1.,0.,-0.));
#291 = PCURVE('',#264,#292);
#292 = DEFINITIONAL_REPRESENTATION('',(#293),#297);
#293 = CIRCLE('',#294,2.75);
#294 = AXIS2_PLACEMENT_2D('',#295,#296);
#295 = CARTESIAN_POINT('',(0.,0.));
#296 = DIRECTION('',(1.,0.));
#297 = ( GEOMETRIC_REPRESENTATION_CONTEXT(2) 
PARAMETRIC_REPRESENTATION_CONTEXT() REPRESENTATION_CONTEXT('2D SPACE',''
  ) );
#298 = PCURVE('',#299,#304);
#299 = TOROIDAL_SURFACE('',#300,2.75,0.3);
#300 = AXIS2_PLACEMENT_3D('',#301,#302,#303);
#301 = CARTESIAN_POINT('',(0.,0.,0.3));
#302 = DIRECTION('',(-0.,-0.,-1.));
#303 = DIRECTION('',(1.,0.,-0.));
#304 = DEFINITIONAL_REPRESENTATION('',(#305),#309);
#305 = LINE('',#306,#307);
#306 = CARTESIAN_POINT('',(-0.,1.570796326795));
#307 = VECTOR('',#308,1.);
#308 = DIRECTION('',(-1.,0.));
#309 = ( GEOMETRIC_REPRESENTATION_CONTEXT(2) 
PARAMETRIC_REPRESENTATION_CONTEXT() REPRESENTATION_CONTEXT('2D SPACE',''
  ) );
#310 = ADVANCED_FACE('',(#311),#299,.F.);
#311 = FACE_BOUND('',#312,.T.);
#312 = EDGE_LOOP('',(#313,#314,#338,#365));
#313 = ORIENTED_EDGE('',*,*,#282,.T.);
#314 = ORIENTED_EDGE('',*,*,#315,.T.);
#315 = EDGE_CURVE('',#283,#316,#318,.T.);
#316 = VERTEX_POINT('',#317);
#317 = CARTESIAN_POINT('',(2.45,0.,0.3));
#318 = SEAM_CURVE('',#319,(#324,#331),.PCURVE_S1.);
#319 = CIRCLE('',#320,0.3);
#320 = AXIS2_PLACEMENT_3D('',#321,#322,#323);
#321 = CARTESIAN_POINT('',(2.75,0.,0.3));
#322 = DIRECTION('',(0.,1.,0.));
#323 = DIRECTION('',(0.,0.,-1.));
#324 = PCURVE('',#299,#325);
#325 = DEFINITIONAL_REPRESENTATION('',(#326),#330);
#326 = LINE('',#327,#328);
#327 = CARTESIAN_POINT('',(-0.,1.570796326795));
#328 = VECTOR('',#329,1.);
#329 = DIRECTION('',(-0.,1.));
#330 = ( GEOMETRIC_REPRESENTATION_CONTEXT(2) 
PARAMETRIC_REPRESENTATION_CONTEXT() REPRESENTATION_CONTEXT('2D SPACE',''
  ) );
#331 = PCURVE('',#299,#332);
#332 = DEFINITIONAL_REPRESENTATION('',(#333),#337);
#333 = LINE('',#334,#335);
#334 = CARTESIAN_POINT('',(-6.28318530718,1.570796326795));
#335 = VECTOR('',#336,1.);
#336 = DIRECTION('',(-0.,1.));
#337 = ( GEOMETRIC_REPRESENTATION_CONTEXT(2) 
PARAMETRIC_REPRESENTATION_CONTEXT() REPRESENTATION_CONTEXT('2D SPACE',''
  ) );
#338 = ORIENTED_EDGE('',*,*,#339,.F.);
#339 = EDGE_CURVE('',#316,#316,#340,.T.);
#340 = SURFACE_CURVE('',#341,(#346,#353),.PCURVE_S1.);
#341 = CIRCLE('',#342,2.45);
#342 = AXIS2_PLACEMENT_3D('',#343,#344,#345);
#343 = CARTESIAN_POINT('',(0.,0.,0.3));
#344 = DIRECTION('',(0.,0.,1.));
#345 = DIRECTION('',(1.,0.,-0.));
#346 = PCURVE('',#299,#347);
#347 = DEFINITIONAL_REPRESENTATION('',(#348),#352);
#348 = LINE('',#349,#350);
#349 = CARTESIAN_POINT('',(-0.,3.14159265359));
#350 = VECTOR('',#351,1.);
#351 = DIRECTION('',(-1.,0.));
#352 = ( GEOMETRIC_REPRESENTATION_CONTEXT(2) 
PARAMETRIC_REPRESENTATION_CONTEXT() REPRESENTATION_CONTEXT('2D SPACE',''
  ) );
#353 = PCURVE('',#354,#359);
#354 = CYLINDRICAL_SURFACE('',#355,2.45);
#355 = AXIS2_PLACEMENT_3D('',#356,#357,#358);
#356 = CARTESIAN_POINT('',(0.,0.,0.3));
#357 = DIRECTION('',(0.,0.,1.));
#358 = DIRECTION('',(1.,0.,-0.));
#359 = DEFINITIONAL_REPRESENTATION('',(#360),#364);
#360 = LINE('',#361,#362);
#361 = CARTESIAN_POINT('',(0.,0.));
#362 = VECTOR('',#363,1.);
#363 = DIRECTION('',(1.,0.));
#364 = ( GEOMETRIC_REPRESENTATION_CONTEXT(2) 
PARAMETRIC_REPRESENTATION_CONTEXT() REPRESENTATION_CONTEXT('2D SPACE',''
  ) );
#365 = ORIENTED_EDGE('',*,*,#315,.F.);
#366 = ADVANCED_FACE('',(#367),#354,.T.);
#367 = FACE_BOUND('',#368,.T.);
#368 = EDGE_LOOP('',(#369,#370,#393,#420));
#369 = ORIENTED_EDGE('',*,*,#339,.T.);
#370 = ORIENTED_EDGE('',*,*,#371,.T.);
#371 = EDGE_CURVE('',#316,#372,#374,.T.);
#372 = VERTEX_POINT('',#373);
#373 = CARTESIAN_POINT('',(2.45,0.,8.579337572031));
#374 = SEAM_CURVE('',#375,(#379,#386),.PCURVE_S1.);
#375 = LINE('',#376,#377);
#376 = CARTESIAN_POINT('',(2.45,0.,0.3));
#377 = VECTOR('',#378,1.);
#378 = DIRECTION('',(0.,0.,1.));
#379 = PCURVE('',#354,#380);
#380 = DEFINITIONAL_REPRESENTATION('',(#381),#385);
#381 = LINE('',#382,#383);
#382 = CARTESIAN_POINT('',(0.,0.));
#383 = VECTOR('',#384,1.);
#384 = DIRECTION('',(0.,1.));
#385 = ( GEOMETRIC_REPRESENTATION_CONTEXT(2) 
PARAMETRIC_REPRESENTATION_CONTEXT() REPRESENTATION_CONTEXT('2D SPACE',''
  ) );
#386 = PCURVE('',#354,#387);
#387 = DEFINITIONAL_REPRESENTATION('',(#388),#392);
#388 = LINE('',#389,#390);
#389 = CARTESIAN_POINT('',(6.28318530718,0.));
#390 = VECTOR('',#391,1.);
#391 = DIRECTION('',(0.,1.));
#392 = ( GEOMETRIC_REPRESENTATION_CONTEXT(2) 
PARAMETRIC_REPRESENTATION_CONTEXT() REPRESENTATION_CONTEXT('2D SPACE',''
  ) );
#393 = ORIENTED_EDGE('',*,*,#394,.F.);
#394 = EDGE_CURVE('',#372,#372,#395,.T.);
#395 = SURFACE_CURVE('',#396,(#401,#408),.PCURVE_S1.);
#396 = CIRCLE('',#397,2.45);
#397 = AXIS2_PLACEMENT_3D('',#398,#399,#400);
#398 = CARTESIAN_POINT('',(0.,0.,8.579337572031));
#399 = DIRECTION('',(0.,0.,1.));
#400 = DIRECTION('',(1.,0.,-0.));
#401 = PCURVE('',#354,#402);
#402 = DEFINITIONAL_REPRESENTATION('',(#403),#407);
#403 = LINE('',#404,#405);
#404 = CARTESIAN_POINT('',(0.,8.279337572031));
#405 = VECTOR('',#406,1.);
#406 = DIRECTION('',(1.,0.));
#407 = ( GEOMETRIC_REPRESENTATION_CONTEXT(2) 
PARAMETRIC_REPRESENTATION_CONTEXT() REPRESENTATION_CONTEXT('2D SPACE',''
  ) );
#408 = PCURVE('',#409,#414);
#409 = CONICAL_SURFACE('',#410,2.45,0.523598775598);
#410 = AXIS2_PLACEMENT_3D('',#411,#412,#413);
#411 = CARTESIAN_POINT('',(0.,0.,8.579337572031));
#412 = DIRECTION('',(-0.,-0.,-1.));
#413 = DIRECTION('',(1.,0.,-0.));
#414 = DEFINITIONAL_REPRESENTATION('',(#415),#419);
#415 = LINE('',#416,#417);
#416 = CARTESIAN_POINT('',(-0.,-0.));
#417 = VECTOR('',#418,1.);
#418 = DIRECTION('',(-1.,-0.));
#419 = ( GEOMETRIC_REPRESENTATION_CONTEXT(2) 
PARAMETRIC_REPRESENTATION_CONTEXT() REPRESENTATION_CONTEXT('2D SPACE',''
  ) );
#420 = ORIENTED_EDGE('',*,*,#371,.F.);
#421 = ADVANCED_FACE('',(#422),#409,.T.);
#422 = FACE_BOUND('',#423,.T.);
#423 = EDGE_LOOP('',(#424,#425,#448,#475));
#424 = ORIENTED_EDGE('',*,*,#394,.T.);
#425 = ORIENTED_EDGE('',*,*,#426,.T.);
#426 = EDGE_CURVE('',#372,#427,#429,.T.);
#427 = VERTEX_POINT('',#428);
#428 = CARTESIAN_POINT('',(2.189809925899,0.,9.03));
#429 = SEAM_CURVE('',#430,(#434,#441),.PCURVE_S1.);
#430 = LINE('',#431,#432);
#431 = CARTESIAN_POINT('',(2.45,0.,8.579337572031));
#432 = VECTOR('',#433,1.);
#433 = DIRECTION('',(-0.5,0.,0.866025403784));
#434 = PCURVE('',#409,#435);
#435 = DEFINITIONAL_REPRESENTATION('',(#436),#440);
#436 = LINE('',#437,#438);
#437 = CARTESIAN_POINT('',(-0.,-0.));
#438 = VECTOR('',#439,1.);
#439 = DIRECTION('',(-0.,-1.));
#440 = ( GEOMETRIC_REPRESENTATION_CONTEXT(2) 
PARAMETRIC_REPRESENTATION_CONTEXT() REPRESENTATION_CONTEXT('2D SPACE',''
  ) );
#441 = PCURVE('',#409,#442);
#442 = DEFINITIONAL_REPRESENTATION('',(#443),#447);
#443 = LINE('',#444,#445);
#444 = CARTESIAN_POINT('',(-6.28318530718,-0.));
#445 = VECTOR('',#446,1.);
#446 = DIRECTION('',(-0.,-1.));
#447 = ( GEOMETRIC_REPRESENTATION_CONTEXT(2) 
PARAMETRIC_REPRESENTATION_CONTEXT() REPRESENTATION_CONTEXT('2D SPACE',''
  ) );
#448 = ORIENTED_EDGE('',*,*,#449,.F.);
#449 = EDGE_CURVE('',#427,#427,#450,.T.);
#450 = SURFACE_CURVE('',#451,(#456,#463),.PCURVE_S1.);
#451 = CIRCLE('',#452,2.189809925899);
#452 = AXIS2_PLACEMENT_3D('',#453,#454,#455);
#453 = CARTESIAN_POINT('',(0.,0.,9.03));
#454 = DIRECTION('',(0.,0.,1.));
#455 = DIRECTION('',(1.,0.,-0.));
#456 = PCURVE('',#409,#457);
#457 = DEFINITIONAL_REPRESENTATION('',(#458),#462);
#458 = LINE('',#459,#460);
#459 = CARTESIAN_POINT('',(-0.,-0.450662427969));
#460 = VECTOR('',#461,1.);
#461 = DIRECTION('',(-1.,-0.));
#462 = ( GEOMETRIC_REPRESENTATION_CONTEXT(2) 
PARAMETRIC_REPRESENTATION_CONTEXT() REPRESENTATION_CONTEXT('2D SPACE',''
  ) );
#463 = PCURVE('',#464,#469);
#464 = CYLINDRICAL_SURFACE('',#465,2.189809925899);
#465 = AXIS2_PLACEMENT_3D('',#466,#467,#468);
#466 = CARTESIAN_POINT('',(0.,0.,9.03));
#467 = DIRECTION('',(0.,0.,1.));
#468 = DIRECTION('',(1.,0.,-0.));
#469 = DEFINITIONAL_REPRESENTATION('',(#470),#474);
#470 = LINE('',#471,#472);
#471 = CARTESIAN_POINT('',(0.,0.));
#472 = VECTOR('',#473,1.);
#473 = DIRECTION('',(1.,0.));
#474 = ( GEOMETRIC_REPRESENTATION_CONTEXT(2) 
PARAMETRIC_REPRESENTATION_CONTEXT() REPRESENTATION_CONTEXT('2D SPACE',''
  ) );
#475 = ORIENTED_EDGE('',*,*,#426,.F.);
#476 = ADVANCED_FACE('',(#477),#464,.T.);
#477 = FACE_BOUND('',#478,.T.);
#478 = EDGE_LOOP('',(#479,#480,#503,#530));
#479 = ORIENTED_EDGE('',*,*,#449,.T.);
#480 = ORIENTED_EDGE('',*,*,#481,.T.);
#481 = EDGE_CURVE('',#427,#482,#484,.T.);
#482 = VERTEX_POINT('',#483);
#483 = CARTESIAN_POINT('',(2.189809925899,0.,43.84));
#484 = SEAM_CURVE('',#485,(#489,#496),.PCURVE_S1.);
#485 = LINE('',#486,#487);
#486 = CARTESIAN_POINT('',(2.189809925899,0.,9.03));
#487 = VECTOR('',#488,1.);
#488 = DIRECTION('',(0.,0.,1.));
#489 = PCURVE('',#464,#490);
#490 = DEFINITIONAL_REPRESENTATION('',(#491),#495);
#491 = LINE('',#492,#493);
#492 = CARTESIAN_POINT('',(0.,0.));
#493 = VECTOR('',#494,1.);
#494 = DIRECTION('',(0.,1.));
#495 = ( GEOMETRIC_REPRESENTATION_CONTEXT(2) 
PARAMETRIC_REPRESENTATION_CONTEXT() REPRESENTATION_CONTEXT('2D SPACE',''
  ) );
#496 = PCURVE('',#464,#497);
#497 = DEFINITIONAL_REPRESENTATION('',(#498),#502);
#498 = LINE('',#499,#500);
#499 = CARTESIAN_POINT('',(6.28318530718,0.));
#500 = VECTOR('',#501,1.);
#501 = DIRECTION('',(0.,1.));
#502 = ( GEOMETRIC_REPRESENTATION_CONTEXT(2) 
PARAMETRIC_REPRESENTATION_CONTEXT() REPRESENTATION_CONTEXT('2D SPACE',''
  ) );
#503 = ORIENTED_EDGE('',*,*,#504,.F.);
#504 = EDGE_CURVE('',#482,#482,#505,.T.);
#505 = SURFACE_CURVE('',#506,(#511,#518),.PCURVE_S1.);
#506 = CIRCLE('',#507,2.189809925899);
#507 = AXIS2_PLACEMENT_3D('',#508,#509,#510);
#508 = CARTESIAN_POINT('',(0.,0.,43.84));
#509 = DIRECTION('',(0.,0.,1.));
#510 = DIRECTION('',(1.,0.,-0.));
#511 = PCURVE('',#464,#512);
#512 = DEFINITIONAL_REPRESENTATION('',(#513),#517);
#513 = LINE('',#514,#515);
#514 = CARTESIAN_POINT('',(0.,34.81));
#515 = VECTOR('',#516,1.);
#516 = DIRECTION('',(1.,0.));
#517 = ( GEOMETRIC_REPRESENTATION_CONTEXT(2) 
PARAMETRIC_REPRESENTATION_CONTEXT() REPRESENTATION_CONTEXT('2D SPACE',''
  ) );
#518 = PCURVE('',#519,#524);
#519 = CONICAL_SURFACE('',#520,2.189809925899,0.785398163397);
#520 = AXIS2_PLACEMENT_3D('',#521,#522,#523);
#521 = CARTESIAN_POINT('',(0.,0.,43.84));
#522 = DIRECTION('',(-0.,-0.,-1.));
#523 = DIRECTION('',(1.,0.,-0.));
#524 = DEFINITIONAL_REPRESENTATION('',(#525),#529);
#525 = LINE('',#526,#527);
#526 = CARTESIAN_POINT('',(-0.,-0.));
#527 = VECTOR('',#528,1.);
#528 = DIRECTION('',(-1.,-0.));
#529 = ( GEOMETRIC_REPRESENTATION_CONTEXT(2) 
PARAMETRIC_REPRESENTATION_CONTEXT() REPRESENTATION_CONTEXT('2D SPACE',''
  ) );
#530 = ORIENTED_EDGE('',*,*,#481,.F.);
#531 = ADVANCED_FACE('',(#532),#519,.T.);
#532 = FACE_BOUND('',#533,.T.);
#533 = EDGE_LOOP('',(#534,#535,#558,#585));
#534 = ORIENTED_EDGE('',*,*,#504,.T.);
#535 = ORIENTED_EDGE('',*,*,#536,.T.);
#536 = EDGE_CURVE('',#482,#537,#539,.T.);
#537 = VERTEX_POINT('',#538);
#538 = CARTESIAN_POINT('',(1.689809925899,0.,44.34));
#539 = SEAM_CURVE('',#540,(#544,#551),.PCURVE_S1.);
#540 = LINE('',#541,#542);
#541 = CARTESIAN_POINT('',(2.189809925899,0.,43.84));
#542 = VECTOR('',#543,1.);
#543 = DIRECTION('',(-0.707106781187,0.,0.707106781187));
#544 = PCURVE('',#519,#545);
#545 = DEFINITIONAL_REPRESENTATION('',(#546),#550);
#546 = LINE('',#547,#548);
#547 = CARTESIAN_POINT('',(-0.,-0.));
#548 = VECTOR('',#549,1.);
#549 = DIRECTION('',(-0.,-1.));
#550 = ( GEOMETRIC_REPRESENTATION_CONTEXT(2) 
PARAMETRIC_REPRESENTATION_CONTEXT() REPRESENTATION_CONTEXT('2D SPACE',''
  ) );
#551 = PCURVE('',#519,#552);
#552 = DEFINITIONAL_REPRESENTATION('',(#553),#557);
#553 = LINE('',#554,#555);
#554 = CARTESIAN_POINT('',(-6.28318530718,-0.));
#555 = VECTOR('',#556,1.);
#556 = DIRECTION('',(-0.,-1.));
#557 = ( GEOMETRIC_REPRESENTATION_CONTEXT(2) 
PARAMETRIC_REPRESENTATION_CONTEXT() REPRESENTATION_CONTEXT('2D SPACE',''
  ) );
#558 = ORIENTED_EDGE('',*,*,#559,.F.);
#559 = EDGE_CURVE('',#537,#537,#560,.T.);
#560 = SURFACE_CURVE('',#561,(#566,#573),.PCURVE_S1.);
#561 = CIRCLE('',#562,1.689809925899);
#562 = AXIS2_PLACEMENT_3D('',#563,#564,#565);
#563 = CARTESIAN_POINT('',(0.,0.,44.34));
#564 = DIRECTION('',(0.,0.,1.));
#565 = DIRECTION('',(1.,0.,-0.));
#566 = PCURVE('',#519,#567);
#567 = DEFINITIONAL_REPRESENTATION('',(#568),#572);
#568 = LINE('',#569,#570);
#569 = CARTESIAN_POINT('',(-0.,-0.5));
#570 = VECTOR('',#571,1.);
#571 = DIRECTION('',(-1.,-0.));
#572 = ( GEOMETRIC_REPRESENTATION_CONTEXT(2) 
PARAMETRIC_REPRESENTATION_CONTEXT() REPRESENTATION_CONTEXT('2D SPACE',''
  ) );
#573 = PCURVE('',#574,#579);
#574 = PLANE('',#575);
#575 = AXIS2_PLACEMENT_3D('',#576,#577,#578);
#576 = CARTESIAN_POINT('',(0.,0.,44.34));
#577 = DIRECTION('',(0.,0.,1.));
#578 = DIRECTION('',(1.,0.,-0.));
#579 = DEFINITIONAL_REPRESENTATION('',(#580),#584);
#580 = CIRCLE('',#581,1.689809925899);
#581 = AXIS2_PLACEMENT_2D('',#582,#583);
#582 = CARTESIAN_POINT('',(0.,0.));
#583 = DIRECTION('',(1.,0.));
#584 = ( GEOMETRIC_REPRESENTATION_CONTEXT(2) 
PARAMETRIC_REPRESENTATION_CONTEXT() REPRESENTATION_CONTEXT('2D SPACE',''
  ) );
#585 = ORIENTED_EDGE('',*,*,#536,.F.);
#586 = ADVANCED_FACE('',(#587),#574,.T.);
#587 = FACE_BOUND('',#588,.T.);
#588 = EDGE_LOOP('',(#589));
#589 = ORIENTED_EDGE('',*,*,#559,.T.);
#590 = ( GEOMETRIC_REPRESENTATION_CONTEXT(3) 
GLOBAL_UNCERTAINTY_ASSIGNED_CONTEXT((#594)) GLOBAL_UNIT_ASSIGNED_CONTEXT
((#591,#592,#593)) REPRESENTATION_CONTEXT('Context #1',
  '3D Context with UNIT and UNCERTAINTY') );
#591 = ( LENGTH_UNIT() NAMED_UNIT(*) SI_UNIT(.MILLI.,.METRE.) );
#592 = ( NAMED_UNIT(*) PLANE_ANGLE_UNIT() SI_UNIT($,.RADIAN.) );
#593 = ( NAMED_UNIT(*) SI_UNIT($,.STERADIAN.) SOLID_ANGLE_UNIT() );
#594 = UNCERTAINTY_MEASURE_WITH_UNIT(LENGTH_MEASURE(1.E-05),#591,
  'distance_accuracy_value','confusion accuracy');
#595 = PRODUCT_RELATED_PRODUCT_CATEGORY('part',$,(#7));
ENDSEC;
END-ISO-10303-21;
